<svg width="400" height="250" viewBox="0 0 400 250" fill="none" xmlns="http://www.w3.org/2000/svg">
<rect width="400" height="250" fill="white"/>
<path d="M101 192.438C101 192.438 103.5 175.25 152.875 175.25C202.25 175.25 351 175.25 351 175.25" stroke="black"/>
<path d="M101 192.2C101 192.2 254 178 311 75.5" stroke="black" stroke-dasharray="5 5"/>
<path d="M285.733 57C285.463 55.5085 284.27 54.6278 282.807 54.6278C280.946 54.6278 279.597 56.0625 279.597 58.3636C279.597 60.6648 280.946 62.0994 282.807 62.0994C284.27 62.0994 285.463 61.2188 285.733 59.7273H284.852C284.639 60.7358 283.773 61.2756 282.807 61.2756C281.486 61.2756 280.449 60.2528 280.449 58.3636C280.449 56.4744 281.486 55.4517 282.807 55.4517C283.773 55.4517 284.639 55.9915 284.852 57H285.733ZM287.156 62H288.037V58.7472H291.915V62H292.795V54.7273H291.915V57.9659H288.037V54.7273H287.156V62ZM294.857 62L295.588 59.9403H298.529L299.26 62H300.183L297.513 54.7273H296.604L293.933 62H294.857ZM295.865 59.1591L297.03 55.8778H297.087L298.252 59.1591H295.865ZM301.316 62H305.578V61.2188H302.197V54.7273H301.316V62ZM306.941 62H311.203V61.2188H307.822V54.7273H306.941V62ZM312.566 62H317.012V61.2188H313.447V58.7472H316.728V57.9659H313.447V55.5085H316.955V54.7273H312.566V62ZM324.31 54.7273H323.443V60.4517H323.372L319.395 54.7273H318.543V62H319.423V56.2898H319.494L323.458 62H324.31V54.7273ZM331.044 57H331.953C331.683 55.5938 330.504 54.6278 328.97 54.6278C327.105 54.6278 325.788 56.0625 325.788 58.3636C325.788 60.6648 327.095 62.0994 329.027 62.0994C330.76 62.0994 331.995 60.9453 331.995 59.1449V58.3636H329.225V59.1449H331.143C331.118 60.4517 330.259 61.2756 329.027 61.2756C327.677 61.2756 326.64 60.2528 326.64 58.3636C326.64 56.4744 327.677 55.4517 328.97 55.4517C330.021 55.4517 330.735 56.0447 331.044 57ZM334.384 54.7273H333.504V62H334.384V54.7273ZM341.917 54.7273H341.051V60.4517H340.98L337.002 54.7273H336.15V62H337.031V56.2898H337.102L341.065 62H341.917V54.7273ZM348.651 57H349.56C349.29 55.5938 348.111 54.6278 346.577 54.6278C344.713 54.6278 343.395 56.0625 343.395 58.3636C343.395 60.6648 344.702 62.0994 346.634 62.0994C348.367 62.0994 349.603 60.9453 349.603 59.1449V58.3636H346.833V59.1449H348.751C348.726 60.4517 347.866 61.2756 346.634 61.2756C345.285 61.2756 344.248 60.2528 344.248 58.3636C344.248 56.4744 345.285 55.4517 346.577 55.4517C347.628 55.4517 348.342 56.0447 348.651 57Z" fill="black"/>
<path d="M325.881 192H330.327V191.219H326.761V188.747H330.043V187.966H326.761V185.509H330.27V184.727H325.881V192ZM332.156 192L332.887 189.94H335.827L336.559 192H337.482L334.812 184.727H333.903L331.232 192H332.156ZM333.164 189.159L334.329 185.878H334.386L335.55 189.159H333.164ZM342.592 186.545H343.445C343.406 185.448 342.393 184.628 340.987 184.628C339.595 184.628 338.501 185.438 338.501 186.659C338.501 187.639 339.212 188.222 340.348 188.548L341.243 188.804C342.01 189.017 342.692 189.287 342.692 190.011C342.692 190.807 341.925 191.332 340.916 191.332C340.05 191.332 339.283 190.949 339.212 190.125H338.303C338.388 191.318 339.354 192.128 340.916 192.128C342.592 192.128 343.544 191.205 343.544 190.026C343.544 188.662 342.251 188.222 341.499 188.023L340.76 187.824C340.22 187.682 339.354 187.398 339.354 186.616C339.354 185.92 339.993 185.409 340.959 185.409C341.839 185.409 342.507 185.828 342.592 186.545ZM344.367 184.727L346.995 189.003V192H347.876V189.003L350.503 184.727H349.495L347.478 188.122H347.393L345.376 184.727H344.367Z" fill="black"/>
<path d="M55 140.026L55 139.117C53.5937 139.386 52.6278 140.565 52.6278 142.1C52.6278 143.964 54.0625 145.281 56.3636 145.281C58.6648 145.281 60.0994 143.975 60.0994 142.043C60.0994 140.31 58.9453 139.074 57.1449 139.074L56.3636 139.074L56.3636 141.844L57.1449 141.844L57.1449 139.926C58.4517 139.951 59.2756 140.81 59.2756 142.043C59.2756 143.392 58.2528 144.429 56.3636 144.429C54.4744 144.429 53.4517 143.392 53.4517 142.1C53.4517 141.048 54.0447 140.335 55 140.026ZM60 137.566L60 136.685L57.1591 136.685L57.1591 135.094C57.1591 135.03 57.1591 134.97 57.1555 134.909L60 133.375L60 132.353L56.9957 133.997C56.6797 133.07 55.9233 132.637 54.9574 132.637C53.6719 132.637 52.7273 133.404 52.7273 135.108L52.7273 137.566L60 137.566ZM56.3636 136.685L53.5085 136.685L53.5085 135.137C53.5085 133.958 54.0838 133.503 54.9574 133.503C55.831 133.503 56.3636 133.958 56.3636 135.122L56.3636 136.685ZM56.3636 125.033C54.0625 125.033 52.6278 126.382 52.6278 128.243C52.6278 130.104 54.0625 131.453 56.3636 131.453C58.6648 131.453 60.0994 130.104 60.0994 128.243C60.0994 126.382 58.6648 125.033 56.3636 125.033ZM56.3636 125.885C58.2528 125.885 59.2756 126.922 59.2756 128.243C59.2756 129.564 58.2528 130.601 56.3636 130.601C54.4744 130.601 53.4517 129.564 53.4517 128.243C53.4517 126.922 54.4744 125.885 56.3636 125.885ZM60 122.231L60 121.322L54.2045 119.717L54.2045 119.66L60 118.055L60 117.146L52.7273 115.157L52.7273 116.052L58.6506 117.572L58.6506 117.643L52.7273 119.191L52.7273 120.185L58.6506 121.734L58.6506 121.805L52.7273 123.325L52.7273 124.22L60 122.231ZM53.5085 114.457L53.5085 112.171L60 112.171L60 111.29L53.5085 111.29L53.5085 109.003L52.7273 109.003L52.7273 114.457L53.5085 114.457ZM60 107.644L60 106.763L56.7472 106.763L56.7472 102.885L60 102.885L60 102.005L52.7273 102.005L52.7273 102.885L55.9659 102.885L55.9659 106.763L52.7273 106.763L52.7273 107.644L60 107.644Z" fill="black" fill-opacity="0.5"/>
</svg>
