<svg width="400" height="250" viewBox="0 0 400 250" fill="none" xmlns="http://www.w3.org/2000/svg">
<rect width="400" height="250" fill="white"/>
<rect width="24" height="24" transform="translate(111 141.248)" fill="white"/>
<path d="M128.156 143.248C126.962 143.248 125.868 143.637 124.903 144.405C123.978 145.142 123.363 146.08 123 146.762C122.637 146.08 122.022 145.142 121.097 144.405C120.132 143.637 119.038 143.248 117.844 143.248C114.512 143.248 112 146.054 112 149.775C112 153.795 115.134 156.545 119.879 160.709C120.685 161.416 121.598 162.218 122.547 163.073C122.673 163.185 122.833 163.248 123 163.248C123.167 163.248 123.327 163.185 123.453 163.073C124.402 162.218 125.315 161.416 126.121 160.709C130.866 156.545 134 153.795 134 149.775C134 146.054 131.488 143.248 128.156 143.248Z" fill="black"/>
<rect width="24" height="24" transform="translate(237 141.248)" fill="white"/>
<path d="M254.156 143.248C252.962 143.248 251.868 143.637 250.903 144.405C249.978 145.142 249.363 146.08 249 146.762C248.637 146.08 248.022 145.142 247.097 144.405C246.132 143.637 245.038 143.248 243.844 143.248C240.512 143.248 238 146.054 238 149.775C238 153.795 241.134 156.545 245.879 160.709C246.685 161.416 247.598 162.218 248.547 163.073C248.673 163.185 248.833 163.248 249 163.248C249.167 163.248 249.327 163.185 249.453 163.073C250.402 162.218 251.315 161.416 252.121 160.709C256.866 156.545 260 153.795 260 149.775C260 146.054 257.488 143.248 254.156 143.248Z" fill="black"/>
<rect width="24" height="24" transform="translate(237 113.248)" fill="white"/>
<path d="M254.156 115.248C252.962 115.248 251.868 115.637 250.903 116.405C249.978 117.142 249.363 118.08 249 118.762C248.637 118.08 248.022 117.142 247.097 116.405C246.132 115.637 245.038 115.248 243.844 115.248C240.512 115.248 238 118.054 238 121.775C238 125.795 241.134 128.545 245.879 132.709C246.685 133.416 247.598 134.218 248.547 135.073C248.673 135.185 248.833 135.248 249 135.248C249.167 135.248 249.327 135.185 249.453 135.073C250.402 134.218 251.315 133.416 252.121 132.709C256.866 128.545 260 125.795 260 121.775C260 118.054 257.488 115.248 254.156 115.248Z" fill="black"/>
<rect width="24" height="24" transform="translate(237 85.2476)" fill="white"/>
<path d="M254.156 87.2476C252.962 87.2476 251.868 87.6371 250.903 88.4054C249.978 89.142 249.363 90.0802 249 90.7624C248.637 90.0802 248.022 89.142 247.097 88.4054C246.132 87.6371 245.038 87.2476 243.844 87.2476C240.512 87.2476 238 90.0536 238 93.7747C238 97.7948 241.134 100.545 245.879 104.709C246.685 105.416 247.598 106.218 248.547 107.073C248.673 107.185 248.833 107.248 249 107.248C249.167 107.248 249.327 107.185 249.453 107.073C250.402 106.218 251.315 105.416 252.121 104.709C256.866 100.545 260 97.7948 260 93.7747C260 90.0536 257.488 87.2476 254.156 87.2476Z" fill="black"/>
<rect width="24" height="24" transform="translate(138 141.248)" fill="white"/>
<path d="M149.293 162.955C149.683 163.345 150.317 163.345 150.707 162.955L157.071 156.591C157.462 156.2 157.462 155.567 157.071 155.176C156.681 154.786 156.047 154.786 155.657 155.176L150 160.833L144.343 155.176C143.953 154.786 143.319 154.786 142.929 155.176C142.538 155.567 142.538 156.2 142.929 156.591L149.293 162.955ZM149 143.248V162.248H151V143.248H149Z" fill="black"/>
<rect width="24" height="80.2477" transform="translate(288.025 165.248) rotate(179.878)" fill="white"/>
<path d="M276.705 88.039C276.315 87.6485 275.681 87.6485 275.291 88.039L268.927 94.4029C268.536 94.7935 268.536 95.4266 268.927 95.8172C269.318 96.2077 269.951 96.2077 270.341 95.8172L275.998 90.1603L281.655 95.8172C282.045 96.2077 282.679 96.2077 283.069 95.8172C283.46 95.4266 283.46 94.7935 283.069 94.4029L276.705 88.039ZM276.998 162.746L276.998 88.7461L274.998 88.7461L274.998 162.746L276.998 162.746Z" fill="black"/>
</svg>
