<svg width="400" height="250" viewBox="0 0 400 250" fill="none" xmlns="http://www.w3.org/2000/svg">
<rect width="400" height="250" fill="white"/>
<rect width="24" height="24" transform="translate(280 119)" fill="white"/>
<path d="M282 140H285.636V129.2H282V140ZM302 130.1C302 129.11 301.182 128.3 300.182 128.3H294.455L295.364 124.16C295.364 124.07 295.364 123.98 295.364 123.89C295.364 123.53 295.182 123.17 295 122.9L294 122L288 127.94C287.636 128.21 287.455 128.66 287.455 129.2V138.2C287.455 139.19 288.273 140 289.273 140H297.455C298.182 140 298.818 139.55 299.091 138.92L301.818 132.53C302.141 131.892 301.965 130.789 302 130.1Z" fill="black"/>
<rect width="24" height="24" transform="translate(246 123)" fill="white"/>
<path fill-rule="evenodd" clip-rule="evenodd" d="M258 143C264.627 143 270 137 270 135C270 133 264.627 127 258 127C251.373 127 246 133 246 135C246 137 251.373 143 258 143ZM262 139C264.209 139 266 137.209 266 135C266 132.791 264.209 131 262 131C259.791 131 258 132.791 258 135C258 137.209 259.791 139 262 139Z" fill="black"/>
<rect width="24" height="24" transform="matrix(1 0 0 -1 162 151)" fill="white"/>
<path d="M164 130H167.636V140.8H164V130ZM184 139.9C184 140.89 183.182 141.7 182.182 141.7H176.455L177.364 145.84C177.364 145.93 177.364 146.02 177.364 146.11C177.364 146.47 177.182 146.83 177 147.1L176 148L170 142.06C169.636 141.79 169.455 141.34 169.455 140.8V131.8C169.455 130.81 170.273 130 171.273 130H179.455C180.182 130 180.818 130.45 181.091 131.08L183.818 137.47C184.141 138.108 183.965 139.211 184 139.9Z" fill="black"/>
<rect width="24" height="24" transform="translate(96 99)" fill="white"/>
<path fill-rule="evenodd" clip-rule="evenodd" d="M108 119C114.627 119 120 113 120 111C120 109 114.627 103 108 103C101.373 103 96 109 96 111C96 113 101.373 119 108 119ZM112 115C114.209 115 116 113.209 116 111C116 108.791 114.209 107 112 107C109.791 107 108 108.791 108 111C108 113.209 109.791 115 112 115Z" fill="black"/>
<rect width="24" height="24" transform="translate(96 123)" fill="white"/>
<path fill-rule="evenodd" clip-rule="evenodd" d="M108 143C114.627 143 120 137 120 135C120 133 114.627 127 108 127C101.373 127 96 133 96 135C96 137 101.373 143 108 143ZM112 139C114.209 139 116 137.209 116 135C116 132.791 114.209 131 112 131C109.791 131 108 132.791 108 135C108 137.209 109.791 139 112 139Z" fill="black"/>
<rect width="24" height="24" transform="translate(124 123)" fill="white"/>
<path fill-rule="evenodd" clip-rule="evenodd" d="M136 143C142.627 143 148 137 148 135C148 133 142.627 127 136 127C129.373 127 124 133 124 135C124 137 129.373 143 136 143ZM140 139C142.209 139 144 137.209 144 135C144 132.791 142.209 131 140 131C137.791 131 136 132.791 136 135C136 137.209 137.791 139 140 139Z" fill="black"/>
<rect width="24" height="24" transform="translate(124 99)" fill="white"/>
<path fill-rule="evenodd" clip-rule="evenodd" d="M136 119C142.627 119 148 113 148 111C148 109 142.627 103 136 103C129.373 103 124 109 124 111C124 113 129.373 119 136 119ZM140 115C142.209 115 144 113.209 144 111C144 108.791 142.209 107 140 107C137.791 107 136 108.791 136 111C136 113.209 137.791 115 140 115Z" fill="black"/>
</svg>
