<svg width="400" height="250" viewBox="0 0 400 250" fill="none" xmlns="http://www.w3.org/2000/svg">
<rect width="400" height="250" fill="white"/>
<path d="M242.156 81C240.962 81 239.868 81.3896 238.903 82.1579C237.978 82.8945 237.363 83.8327 237 84.5149C236.637 83.8326 236.022 82.8945 235.097 82.1579C234.132 81.3896 233.038 81 231.844 81C228.512 81 226 83.8061 226 87.5272C226 91.5473 229.134 94.2977 233.879 98.4616C234.685 99.1687 235.598 99.9702 236.547 100.825C236.673 100.938 236.833 101 237 101C237.167 101 237.327 100.938 237.453 100.825C238.402 99.9701 239.315 99.1687 240.121 98.4612C244.866 94.2977 248 91.5473 248 87.5272C248 83.8061 245.488 81 242.156 81Z" fill="black"/>
<path d="M176 109C176 109 178.25 115 183.5 115C188.75 115 191 109 191 109" stroke="black" stroke-width="4" stroke-linecap="round"/>
<path d="M209 109C209 109 211.25 115 216.5 115C221.75 115 224 109 224 109" stroke="black" stroke-width="4" stroke-linecap="round"/>
<path d="M186 134C186 134 189 143 198.5 143C208 143 211 134 211 134" stroke="black" stroke-width="4" stroke-linecap="round"/>
</svg>
