<svg width="400" height="250" viewBox="0 0 400 250" fill="none" xmlns="http://www.w3.org/2000/svg">
<rect width="400" height="250" fill="white"/>
<path d="M101 192.438C101 192.438 103.5 175.25 152.875 175.25C202.25 175.25 351 175.25 351 175.25" stroke="black"/>
<path d="M101 192.2C101 192.2 254 178 311 75.5" stroke="black" stroke-dasharray="5 5"/>
<path d="M289.733 61C289.463 59.5085 288.27 58.6278 286.807 58.6278C284.946 58.6278 283.597 60.0625 283.597 62.3636C283.597 64.6648 284.946 66.0994 286.807 66.0994C288.27 66.0994 289.463 65.2188 289.733 63.7273H288.852C288.639 64.7358 287.773 65.2756 286.807 65.2756C285.486 65.2756 284.449 64.2528 284.449 62.3636C284.449 60.4744 285.486 59.4517 286.807 59.4517C287.773 59.4517 288.639 59.9915 288.852 61H289.733ZM291.881 62.7188C291.881 61.767 292.488 61.2273 293.315 61.2273C294.104 61.2273 294.579 61.7244 294.579 62.5909V66H295.417V62.5341C295.417 61.1314 294.672 60.4744 293.557 60.4744C292.697 60.4744 292.207 60.8331 291.952 61.3977H291.881V58.7273H291.042V66H291.881V62.7188ZM298.556 66.1278C299.507 66.1278 300.005 65.6165 300.175 65.2614H300.218V66H301.056V62.4062C301.056 60.6733 299.735 60.4744 299.039 60.4744C298.215 60.4744 297.277 60.7585 296.851 61.7528L297.647 62.0369C297.831 61.6392 298.268 61.2131 299.067 61.2131C299.838 61.2131 300.218 61.6214 300.218 62.321V62.3494C300.218 62.7543 299.806 62.7188 298.811 62.8466C297.799 62.978 296.695 63.2017 296.695 64.4517C296.695 65.517 297.519 66.1278 298.556 66.1278ZM298.684 65.375C298.016 65.375 297.533 65.0767 297.533 64.4943C297.533 63.8551 298.115 63.6562 298.769 63.571C299.124 63.5284 300.076 63.429 300.218 63.2585V64.0256C300.218 64.7074 299.678 65.375 298.684 65.375ZM303.423 58.7273H302.585V66H303.423V58.7273ZM305.797 58.7273H304.958V66H305.797V58.7273ZM309.618 66.1136C310.726 66.1136 311.536 65.5597 311.792 64.7358L310.982 64.5085C310.769 65.0767 310.275 65.3608 309.618 65.3608C308.635 65.3608 307.956 64.7251 307.917 63.5568H311.877V63.2017C311.877 61.1705 310.67 60.4744 309.533 60.4744C308.056 60.4744 307.076 61.6392 307.076 63.3153C307.076 64.9915 308.042 66.1136 309.618 66.1136ZM307.917 62.8324C307.974 61.9837 308.574 61.2273 309.533 61.2273C310.442 61.2273 311.025 61.9091 311.025 62.8324H307.917ZM313.99 62.7188C313.99 61.767 314.579 61.2273 315.382 61.2273C316.16 61.2273 316.632 61.7351 316.632 62.5909V66H317.47V62.5341C317.47 61.142 316.728 60.4744 315.623 60.4744C314.8 60.4744 314.288 60.8438 314.032 61.3977H313.961V60.5455H313.152V66H313.99V62.7188ZM321.203 68.1591C322.51 68.1591 323.561 67.5625 323.561 66.1562V60.5455H322.751V61.4119H322.666C322.482 61.1278 322.141 60.4744 321.075 60.4744C319.697 60.4744 318.746 61.5682 318.746 63.2443C318.746 64.9489 319.74 65.9148 321.061 65.9148C322.126 65.9148 322.467 65.2898 322.652 64.9915H322.723V66.0994C322.723 67.0085 322.084 67.4205 321.203 67.4205C320.212 67.4205 319.864 66.8984 319.641 66.5966L318.973 67.0653C319.314 67.6371 319.985 68.1591 321.203 68.1591ZM321.175 65.1619C320.124 65.1619 319.584 64.3665 319.584 63.2301C319.584 62.1222 320.109 61.2273 321.175 61.2273C322.197 61.2273 322.737 62.0511 322.737 63.2301C322.737 64.4375 322.183 65.1619 321.175 65.1619ZM325.095 66H325.933V60.5455H325.095V66ZM325.521 59.6364C325.848 59.6364 326.118 59.3807 326.118 59.0682C326.118 58.7557 325.848 58.5 325.521 58.5C325.195 58.5 324.925 58.7557 324.925 59.0682C324.925 59.3807 325.195 59.6364 325.521 59.6364ZM328.306 62.7188C328.306 61.767 328.896 61.2273 329.698 61.2273C330.476 61.2273 330.948 61.7351 330.948 62.5909V66H331.786V62.5341C331.786 61.142 331.044 60.4744 329.94 60.4744C329.116 60.4744 328.605 60.8438 328.349 61.3977H328.278V60.5455H327.468V66H328.306V62.7188ZM335.52 68.1591C336.826 68.1591 337.877 67.5625 337.877 66.1563V60.5455H337.068V61.4119H336.983C336.798 61.1278 336.457 60.4744 335.392 60.4744C334.014 60.4744 333.062 61.5682 333.062 63.2443C333.062 64.9489 334.056 65.9148 335.377 65.9148C336.443 65.9148 336.784 65.2898 336.968 64.9915H337.039V66.0994C337.039 67.0085 336.4 67.4205 335.52 67.4205C334.529 67.4205 334.181 66.8984 333.957 66.5966L333.289 67.0653C333.63 67.6371 334.301 68.1591 335.52 68.1591ZM335.491 65.1619C334.44 65.1619 333.9 64.3665 333.9 63.2301C333.9 62.1222 334.426 61.2273 335.491 61.2273C336.514 61.2273 337.054 62.0511 337.054 63.2301C337.054 64.4375 336.5 65.1619 335.491 65.1619Z" fill="black"/>
<path d="M328.881 192H333.327V191.219H329.761V188.747H333.043V187.966H329.761V185.509H333.27V184.727H328.881V192ZM336.349 192.128C337.3 192.128 337.798 191.616 337.968 191.261H338.011V192H338.849V188.406C338.849 186.673 337.528 186.474 336.832 186.474C336.008 186.474 335.07 186.759 334.644 187.753L335.44 188.037C335.624 187.639 336.061 187.213 336.86 187.213C337.631 187.213 338.011 187.621 338.011 188.321V188.349C338.011 188.754 337.599 188.719 336.604 188.847C335.592 188.978 334.488 189.202 334.488 190.452C334.488 191.517 335.312 192.128 336.349 192.128ZM336.477 191.375C335.809 191.375 335.326 191.077 335.326 190.494C335.326 189.855 335.908 189.656 336.562 189.571C336.917 189.528 337.869 189.429 338.011 189.259V190.026C338.011 190.707 337.471 191.375 336.477 191.375ZM344.242 187.767C343.979 186.993 343.39 186.474 342.31 186.474C341.16 186.474 340.307 187.128 340.307 188.051C340.307 188.804 340.755 189.308 341.756 189.543L342.665 189.756C343.216 189.884 343.475 190.146 343.475 190.523C343.475 190.991 342.978 191.375 342.197 191.375C341.511 191.375 341.081 191.08 340.932 190.494L340.137 190.693C340.332 191.62 341.096 192.114 342.211 192.114C343.479 192.114 344.341 191.421 344.341 190.48C344.341 189.72 343.866 189.241 342.893 189.003L342.083 188.804C341.437 188.644 341.145 188.428 341.145 188.009C341.145 187.54 341.643 187.199 342.31 187.199C343.042 187.199 343.344 187.604 343.489 187.98L344.242 187.767ZM346.143 194.045C346.899 194.045 347.432 193.644 347.748 192.795L350.07 186.56L349.154 186.545L347.648 190.892H347.592L346.086 186.545H345.177L347.194 192.028L347.038 192.455C346.732 193.286 346.356 193.364 345.745 193.207L345.532 193.946C345.617 193.989 345.859 194.045 346.143 194.045Z" fill="black"/>
<path d="M54.5455 182.142L54.5455 181.29C53.4482 181.329 52.6278 182.341 52.6278 183.747C52.6278 185.139 53.4375 186.233 54.6591 186.233C55.6392 186.233 56.2216 185.523 56.5483 184.386L56.804 183.491C57.017 182.724 57.2869 182.043 58.0114 182.043C58.8068 182.043 59.3324 182.81 59.3324 183.818C59.3324 184.685 58.9489 185.452 58.125 185.523L58.125 186.432C59.3182 186.347 60.1278 185.381 60.1278 183.818C60.1278 182.142 59.2045 181.19 58.0256 181.19C56.6619 181.19 56.2216 182.483 56.0227 183.236L55.8239 183.974C55.6818 184.514 55.3977 185.381 54.6165 185.381C53.9205 185.381 53.4091 184.741 53.4091 183.776C53.4091 182.895 53.8281 182.227 54.5455 182.142ZM60 178.342L60 173.896L59.2187 173.896L59.2187 177.462L56.7472 177.462L56.7472 174.18L55.9659 174.18L55.9659 177.462L53.5085 177.462L53.5085 173.953L52.7273 173.953L52.7273 178.342L60 178.342ZM60 170.966L60 166.704L59.2187 166.704L59.2187 170.085L52.7273 170.085L52.7273 170.966L60 170.966ZM60 163.941L60 163.06L56.7472 163.06L56.7472 159.907L55.9659 159.907L55.9659 163.06L53.5085 163.06L53.5085 159.58L52.7273 159.58L52.7273 163.941L60 163.941ZM52.7273 147.366L52.7273 148.247L60 148.247L60 147.366L52.7273 147.366ZM52.7273 144.2L60 144.2L60 143.376L54.4744 143.376L54.4744 143.305L60 141.033L60 140.237L54.4744 137.964L54.4744 137.893L60 137.893L60 137.069L52.7273 137.069L52.7273 138.121L58.7642 140.592L58.7642 140.677L52.7273 143.149L52.7273 144.2ZM60 133.904L60 133.023L57.3437 133.023L57.3437 131.432C57.3437 129.738 56.3139 128.975 55.0284 128.975C53.7429 128.975 52.7273 129.738 52.7273 131.446L52.7273 133.904L60 133.904ZM56.5625 133.023L53.5085 133.023L53.5085 131.475C53.5085 130.292 54.1548 129.841 55.0284 129.841C55.902 129.841 56.5625 130.292 56.5625 131.461L56.5625 133.023ZM60 126.156L60 125.275L57.1591 125.275L57.1591 123.684C57.1591 123.621 57.1591 123.56 57.1555 123.5L60 121.966L60 120.943L56.9957 122.587C56.6797 121.66 55.9233 121.227 54.9574 121.227C53.6719 121.227 52.7273 121.994 52.7273 123.699L52.7273 126.156L60 126.156ZM56.3636 125.275L53.5085 125.275L53.5085 123.727C53.5085 122.548 54.0838 122.094 54.9574 122.094C55.831 122.094 56.3636 122.548 56.3636 123.713L56.3636 125.275ZM56.3636 112.223C54.0625 112.223 52.6278 113.573 52.6278 115.433C52.6278 117.294 54.0625 118.644 56.3636 118.644C58.6648 118.644 60.0994 117.294 60.0994 115.433C60.0994 113.573 58.6648 112.223 56.3636 112.223ZM56.3636 113.075C58.2528 113.075 59.2756 114.112 59.2756 115.433C59.2756 116.754 58.2528 117.791 56.3636 117.791C54.4744 117.791 53.4517 116.754 53.4517 115.433C53.4517 114.112 54.4744 113.075 56.3636 113.075ZM52.7273 109.386L52.7273 110.309L60 107.639L60 106.73L52.7273 104.059L52.7273 104.982L58.8494 107.142L58.8494 107.227L52.7273 109.386ZM60 101.526L60 97.0803L59.2187 97.0803L59.2187 100.646L56.7472 100.646L56.7472 97.3644L55.9659 97.3644L55.9659 100.646L53.5085 100.646L53.5085 97.1371L52.7273 97.1371L52.7273 101.526L60 101.526ZM52.7273 94.1498L60 94.1498L60 93.3259L54.4744 93.3259L54.4744 93.2549L60 90.9822L60 90.1867L54.4744 87.914L54.4744 87.843L60 87.843L60 87.0191L52.7273 87.0191L52.7273 88.0702L58.7642 90.5418L58.7642 90.6271L52.7273 93.0987L52.7273 94.1498ZM60 83.8533L60 79.4073L59.2187 79.4073L59.2187 82.9726L56.7472 82.9726L56.7472 79.6914L55.9659 79.6914L55.9659 82.9726L53.5085 82.9726L53.5085 79.4641L52.7273 79.4641L52.7273 83.8533L60 83.8533ZM52.7273 70.7097L52.7273 71.5762L58.4517 71.5762L58.4517 71.6472L52.7273 75.6245L52.7273 76.4767L60 76.4767L60 75.5961L54.2898 75.5961L54.2898 75.525L60 71.562L60 70.7097L52.7273 70.7097ZM53.5085 67.9452L53.5085 65.6582L60 65.6582L60 64.7776L53.5085 64.7776L53.5085 62.4906L52.7273 62.4906L52.7273 67.9452L53.5085 67.9452Z" fill="black" fill-opacity="0.5"/>
</svg>
