<svg width="400" height="250" viewBox="0 0 400 250" fill="none" xmlns="http://www.w3.org/2000/svg">
<rect width="400" height="250" fill="white"/>
<rect width="46" height="46" transform="translate(177 102)" fill="white"/>
<path fill-rule="evenodd" clip-rule="evenodd" d="M200.958 111.583V119.25H199.042V111.583H200.958ZM192.076 120.14L188.243 113.5L186.583 114.458L190.416 121.098L192.076 120.14ZM179.875 123.213L186.514 127.046L185.556 128.706L178.917 124.873L179.875 123.213ZM178.917 138.417V136.5H221.083V138.417H178.917ZM207.667 120.14L211.5 113.5L213.16 114.458L209.326 121.098L207.667 120.14ZM213.417 127.046L220.056 123.213L221.014 124.873L214.375 128.706L213.417 127.046ZM200 121.167C192.59 121.167 186.583 127.174 186.583 134.583H213.417C213.417 127.174 207.41 121.167 200 121.167Z" fill="black"/>
</svg>
